<svg width="24" height="24" viewBox="0 0 24 24" fill="none" xmlns="http://www.w3.org/2000/svg">
<path d="M19 5C19 4.44772 18.5523 4 18 4V2C19.6569 2 21 3.34315 21 5V22H13V20H19V5ZM13 2V4C12.9654 4 12.9312 4.00145 12.8975 4.00488C12.3933 4.05621 12 4.48232 12 5V8H10V5C10 3.34315 11.3431 2 13 2ZM18 2V4H13V2H18Z" fill="#131212"/>
<path d="M13 9C13 8.44772 12.5523 8 12 8H6C5.44772 8 5 8.44772 5 9V20H13V9ZM15 22H3V9C3 7.34315 4.34315 6 6 6H12C13.6569 6 15 7.34315 15 9V22Z" fill="#131212"/>
<path d="M8 18C8 17.4477 8.44772 17 9 17C9.55228 17 10 17.4477 10 18V22H8V18Z" fill="#131212"/>
<rect x="7" y="10" width="4" height="1.5" rx="0.75" fill="#131212"/>
<rect x="7" y="13" width="4" height="1.5" rx="0.75" fill="#131212"/>
</svg>
