<svg width="24" height="24" viewBox="0 0 24 24" fill="none" xmlns="http://www.w3.org/2000/svg">
<path d="M18 2C19.6569 2 21 3.34315 21 5V22H16V9C16 6.79086 14.2091 5 12 5H10C10 3.34315 11.3431 2 13 2H18Z" fill="#131212"/>
<path d="M19 5C19 4.44772 18.5523 4 18 4H15.3164C16.8535 5.02154 17.8929 6.73219 17.9922 8.69141L18 9V20H19V5ZM21 22H16V9C16 6.79086 14.2091 5 12 5H10C10 3.34315 11.3431 2 13 2H18C19.6569 2 21 3.34315 21 5V22Z" fill="#131212"/>
<path d="M12 6C13.6569 6 15 7.34315 15 9V22H10V19C10 18.4477 9.55228 18 9 18C8.44772 18 8 18.4477 8 19V22H3V9C3 7.34315 4.34315 6 6 6H12ZM7.75 13C7.33579 13 7 13.3358 7 13.75C7 14.1642 7.33579 14.5 7.75 14.5H10.25C10.6642 14.5 11 14.1642 11 13.75C11 13.3358 10.6642 13 10.25 13H7.75ZM7.75 10C7.33579 10 7 10.3358 7 10.75C7 11.1642 7.33579 11.5 7.75 11.5H10.25C10.6642 11.5 11 11.1642 11 10.75C11 10.3358 10.6642 10 10.25 10H7.75Z" fill="#131212"/>
</svg>
