<svg width="24" height="24" viewBox="0 0 24 24" fill="none" xmlns="http://www.w3.org/2000/svg">
<path d="M19 17V19H5V17H19ZM19 11H5V19L4.7959 18.9893C3.85435 18.8938 3.1062 18.1457 3.01074 17.2041L3 17V11C3 9.89543 3.89543 9 5 9H19C20.1046 9 21 9.89543 21 11V17C21 18.0357 20.2128 18.887 19.2041 18.9893L19 19V11Z" fill="#131212"/>
<path d="M3 17H6V19.5C6 20.3284 5.32843 21 4.5 21C3.67157 21 3 20.3284 3 19.5V17Z" fill="#131212"/>
<path d="M18 17H21V19.5C21 20.3284 20.3284 21 19.5 21C18.6716 21 18 20.3284 18 19.5V17Z" fill="#131212"/>
<path d="M9 13.5C9 14.3284 8.32843 15 7.5 15C6.67157 15 6 14.3284 6 13.5C6 12.6716 6.67157 12 7.5 12C8.32843 12 9 12.6716 9 13.5Z" fill="#131212"/>
<path d="M18 13.5C18 14.3284 17.3284 15 16.5 15C15.6716 15 15 14.3284 15 13.5C15 12.6716 15.6716 12 16.5 12C17.3284 12 18 12.6716 18 13.5Z" fill="#131212"/>
<path d="M15.9385 3C17.3148 3.00019 18.5147 3.93721 18.8486 5.27246L20.2812 11H3.74023L5.06543 5.31836C5.38224 3.96059 6.59307 3 7.9873 3H15.9385ZM7.9873 5C7.52269 5 7.11942 5.32008 7.01367 5.77246L6.25977 9H17.7197L16.9082 5.75781C16.7969 5.31282 16.3971 5.00019 15.9385 5H7.9873Z" fill="#131212"/>
</svg>
