<svg width="24" height="24" viewBox="0 0 24 24" fill="none" xmlns="http://www.w3.org/2000/svg">
<path d="M18 20V22H6V20H18ZM19 19V7C19 6.44772 18.5523 6 18 6H6C5.44772 6 5 6.44772 5 7V19C5 19.5523 5.44772 20 6 20V22C4.39489 22 3.08421 20.7394 3.00391 19.1543L3 19V7C3 5.34315 4.34315 4 6 4H18L18.1543 4.00391C19.7394 4.08421 21 5.39489 21 7V19L20.9961 19.1543C20.9184 20.6883 19.6883 21.9184 18.1543 21.9961L18 22V20C18.5523 20 19 19.5523 19 19Z" fill="black"/>
<path d="M4 10H20V12H4V10Z" fill="black"/>
<path d="M7 3C7 2.44772 7.44772 2 8 2C8.55228 2 9 2.44772 9 3V7C9 7.55228 8.55228 8 8 8C7.44772 8 7 7.55228 7 7V3Z" fill="black"/>
<path d="M15 3C15 2.44772 15.4477 2 16 2C16.5523 2 17 2.44772 17 3V7C17 7.55228 16.5523 8 16 8C15.4477 8 15 7.55228 15 7V3Z" fill="black"/>
</svg>
