<svg width="24" height="24" viewBox="0 0 24 24" fill="none" xmlns="http://www.w3.org/2000/svg">
<path d="M12 2C17.5228 2 22 6.47715 22 12C22 17.5228 17.5228 22 12 22C6.47715 22 2 17.5228 2 12C2 6.47715 6.47715 2 12 2ZM17.5996 7.2002C17.1578 6.86896 16.5315 6.95862 16.2002 7.40039L10.8916 14.4775L7.70703 11.293C7.31651 10.9024 6.68349 10.9024 6.29297 11.293C5.90246 11.6835 5.90245 12.3165 6.29297 12.707L10.293 16.707C10.498 16.912 10.7821 17.0176 11.0713 16.9971C11.3603 16.9764 11.626 16.8314 11.7998 16.5996L17.7998 8.59961C18.131 8.15779 18.0414 7.53153 17.5996 7.2002Z" fill="black"/>
</svg>
