<svg width="24" height="24" viewBox="0 0 24 24" fill="none" xmlns="http://www.w3.org/2000/svg">
<path d="M7 3C7 2.44772 7.44772 2 8 2C8.55228 2 9 2.44772 9 3V7C9 7.55228 8.55228 8 8 8C7.44772 8 7 7.55228 7 7V3Z" fill="black"/>
<path d="M15 3C15 2.44772 15.4477 2 16 2C16.5523 2 17 2.44772 17 3V7C17 7.55228 16.5523 8 16 8C15.4477 8 15 7.55228 15 7V3Z" fill="black"/>
<path d="M21 19C21 20.6569 19.6569 22 18 22H6C4.34315 22 3 20.6569 3 19V12H21V19ZM18 4C19.6569 4 21 5.34315 21 7V10H3V7C3 5.34315 4.34315 4 6 4H18Z" fill="black"/>
</svg>
