<svg width="28" height="28" viewBox="0 0 28 28" fill="none" xmlns="http://www.w3.org/2000/svg">
<path d="M7.92012 2.64511L9.58012 2.14511C10.3358 1.91714 11.1486 1.97194 11.8668 2.29931C12.585 2.62667 13.1595 3.20421 13.4831 3.92411L14.5161 6.22211C14.7945 6.84117 14.872 7.53185 14.7379 8.19722C14.6037 8.8626 14.2646 9.46927 13.7681 9.93211L11.9631 11.6151C11.9415 11.6366 11.9233 11.6612 11.9091 11.6881C11.7201 12.0741 12.0071 13.1051 12.9061 14.6631C13.9201 16.4191 14.7031 17.1131 15.0661 17.0061L17.4351 16.2811C18.0839 16.083 18.7784 16.0929 19.4213 16.3093C20.0642 16.5258 20.6233 16.938 21.0201 17.4881L22.4881 19.5211C22.949 20.1594 23.1625 20.9434 23.0889 21.7273C23.0154 22.5112 22.6597 23.2417 22.0881 23.7831L20.8251 24.9781C20.3859 25.3941 19.8526 25.6977 19.2706 25.863C18.6887 26.0282 18.0754 26.0502 17.4831 25.9271C13.9661 25.1951 10.8151 22.3631 8.00312 17.4931C5.19012 12.6201 4.31312 8.47011 5.44312 5.05711C5.63227 4.48572 5.95619 3.96825 6.3875 3.54843C6.8188 3.12861 7.34383 2.81878 7.92012 2.64511ZM8.35512 4.08111C8.00933 4.18526 7.69369 4.37112 7.43487 4.62298C7.17605 4.87483 6.98166 5.18529 6.86812 5.52811C5.89412 8.46911 6.68312 12.2051 9.30312 16.7431C11.9211 21.2781 14.7591 23.8281 17.7901 24.4581C18.1455 24.5319 18.5135 24.5186 18.8626 24.4193C19.2117 24.32 19.5317 24.1378 19.7951 23.8881L21.0571 22.6941C21.365 22.4026 21.5566 22.0093 21.5964 21.5872C21.6361 21.1651 21.5212 20.7429 21.2731 20.3991L19.8051 18.3651C19.5915 18.0689 19.2905 17.847 18.9444 17.7305C18.5983 17.6139 18.2244 17.6085 17.8751 17.7151L15.5001 18.4421C14.1861 18.8331 12.9501 17.7381 11.6081 15.4121C10.4711 13.4441 10.0771 12.0221 10.5631 11.0291C10.6578 10.8358 10.7838 10.6654 10.9411 10.5181L12.7461 8.83511C13.0136 8.58589 13.1962 8.25918 13.2685 7.90084C13.3408 7.5425 13.299 7.17051 13.1491 6.83711L12.1151 4.54011C11.9409 4.15237 11.6315 3.84131 11.2446 3.66502C10.8578 3.48873 10.4201 3.45926 10.0131 3.58211L8.35512 4.08111Z" fill="black"/>
</svg>
