<svg width="24" height="24" viewBox="0 0 24 24" fill="none" xmlns="http://www.w3.org/2000/svg">
<path d="M20 12C20 7.58172 16.4183 4 12 4C7.58172 4 4 7.58172 4 12C4 16.4183 7.58172 20 12 20V22C6.47715 22 2 17.5228 2 12C2 6.47715 6.47715 2 12 2C17.5228 2 22 6.47715 22 12C22 17.5228 17.5228 22 12 22V20C16.4183 20 20 16.4183 20 12Z" fill="black"/>
<path d="M16.2002 7.40039C16.5315 6.95862 17.1578 6.86896 17.5996 7.2002C18.0414 7.53153 18.131 8.15779 17.7998 8.59961L11.7998 16.5996C11.626 16.8314 11.3603 16.9764 11.0713 16.9971C10.7821 17.0176 10.498 16.912 10.293 16.707L6.29297 12.707C5.90245 12.3165 5.90246 11.6835 6.29297 11.293C6.68349 10.9024 7.31651 10.9024 7.70703 11.293L10.8916 14.4775L16.2002 7.40039Z" fill="black"/>
</svg>
