<svg width="24" height="24" viewBox="0 0 24 24" fill="none" xmlns="http://www.w3.org/2000/svg">
<path d="M13 16C13 16.5523 12.5523 17 12 17C11.4478 17 11 16.5523 11 16C11 15.4477 11.4478 15 12 15C12.5523 15 13 15.4477 13 16Z" fill="#171719"/>
<path d="M12.9002 8C12.9002 7.50294 12.4972 7.1 12.0002 7.1C11.5031 7.1 11.1002 7.50294 11.1002 8V12.5C11.1002 12.9971 11.5031 13.4 12.0002 13.4C12.4972 13.4 12.9002 12.9971 12.9002 12.5V8Z" fill="#171719"/>
<path fill-rule="evenodd" clip-rule="evenodd" d="M2.1001 12.0001C2.1001 6.53248 6.53246 2.1001 12.0001 2.1001C17.4677 2.1001 21.9 6.53248 21.9 12.0001C21.9 17.4677 17.4677 21.9001 12.0001 21.9001C6.53246 21.9001 2.1001 17.4677 2.1001 12.0001ZM12.0001 3.9001C7.52657 3.9001 3.90009 7.52659 3.90009 12.0001C3.90009 16.4736 7.52657 20.1001 12.0001 20.1001C16.4735 20.1001 20.1 16.4736 20.1 12.0001C20.1 7.52659 16.4735 3.9001 12.0001 3.9001Z" fill="#171719"/>
</svg>
