<svg width="24" height="24" viewBox="0 0 24 24" fill="none" xmlns="http://www.w3.org/2000/svg">
<path d="M13 13.8541C14.1046 13.8541 15 14.7496 15 15.8541V21.0006H13V15.8541H11V21.0006H9V15.8541C9 14.7496 9.89543 13.8541 11 13.8541H13Z" fill="black"/>
<path d="M10.2725 3.57922C11.3083 2.8499 12.6917 2.8499 13.7275 3.57922L19.7275 7.80482C20.5252 8.36664 20.9998 9.28231 21 10.2579V17.9757C20.9998 19.6324 19.6567 20.9758 18 20.9758H14V18.9757H18C18.5519 18.9757 18.9999 18.5283 19 17.9757V10.2579C18.9998 9.93269 18.8415 9.62758 18.5762 9.44056L12.5762 5.21496C12.2309 4.9719 11.7691 4.9719 11.4238 5.21496L5.42383 9.44056C5.15855 9.62758 5.0002 9.93269 5 10.2579V17.9757C5.00007 18.5283 5.44811 18.9757 6 18.9757H10V20.9758H6C4.34328 20.9758 3.00022 19.6324 3 17.9757V10.2579C3.0002 9.28231 3.4748 8.36664 4.27246 7.80482L10.2725 3.57922Z" fill="black"/>
</svg>
