<svg width="24" height="24" viewBox="0 0 24 24" fill="none" xmlns="http://www.w3.org/2000/svg">
<path d="M13 8C13 7.44771 12.5523 7 12 7C11.4478 7 11 7.44771 11 8C11 8.55229 11.4478 9 12 9C12.5523 9 13 8.55229 13 8Z" fill="#171719"/>
<path d="M12.9002 16C12.9002 16.4971 12.4972 16.9 12.0002 16.9C11.5031 16.9 11.1002 16.4971 11.1002 16V11.5C11.1002 11.0029 11.5031 10.6 12.0002 10.6C12.4972 10.6 12.9002 11.0029 12.9002 11.5V16Z" fill="#171719"/>
<path fill-rule="evenodd" clip-rule="evenodd" d="M2.1001 11.9999C2.1001 17.4675 6.53246 21.8999 12.0001 21.8999C17.4677 21.8999 21.9 17.4675 21.9 11.9999C21.9 6.53228 17.4677 2.0999 12.0001 2.0999C6.53246 2.0999 2.1001 6.53228 2.1001 11.9999ZM12.0001 20.0999C7.52657 20.0999 3.90009 16.4734 3.90009 11.9999C3.90009 7.5264 7.52657 3.8999 12.0001 3.8999C16.4735 3.8999 20.1 7.5264 20.1 11.9999C20.1 16.4734 16.4735 20.0999 12.0001 20.0999Z" fill="#171719"/>
</svg>
