<svg width="24" height="24" viewBox="0 0 24 24" fill="none" xmlns="http://www.w3.org/2000/svg">
<path fill-rule="evenodd" clip-rule="evenodd" d="M2.09991 12.0001C2.09991 17.4678 6.53228 21.9001 11.9999 21.9001C17.4675 21.9001 21.8998 17.4678 21.8998 12.0001C21.8998 6.53253 17.4675 2.10015 11.9999 2.10015C6.53228 2.10015 2.09991 6.53253 2.09991 12.0001ZM12 16.9002C12.497 16.9002 12.9 16.4973 12.9 16.0002V11.5002C12.9 11.0032 12.497 10.6002 12 10.6002C11.5029 10.6002 11.1 11.0032 11.1 11.5002V16.0002C11.1 16.4973 11.5029 16.9002 12 16.9002ZM12.9998 8.00024C12.9998 7.44796 12.5521 7.00024 11.9998 7.00024C11.4476 7.00024 10.9999 7.44796 10.9999 8.00024C10.9999 8.55253 11.4476 9.00024 11.9998 9.00024C12.5521 9.00024 12.9998 8.55253 12.9998 8.00024Z" fill="#171719"/>
</svg>
