<svg width="24" height="24" viewBox="0 0 24 24" fill="none" xmlns="http://www.w3.org/2000/svg">
<g clip-path="url(#clip0_28_36)">
<path d="M14.0002 20C14.5524 20 15.0002 20.4477 15.0002 21C15.0002 21.5522 14.5524 22 14.0002 22H10.0002C9.44788 22 9.00016 21.5522 9.00016 21C9.00016 20.4477 9.44788 20 10.0002 20H14.0002Z" fill="#131212"/>
<path d="M12.5739 2.01922C14.258 2.13523 15.557 2.76651 16.5231 3.74187C17.5284 4.75708 18.1078 6.0781 18.4586 7.37761C18.8106 8.68129 18.9526 10.0391 19.0319 11.193C19.1158 12.4156 19.1282 13.2837 19.2125 13.8532C19.4356 15.3587 20.0947 16.4033 20.5914 17.1071C21.1481 17.896 20.5925 18.999 19.612 18.9997H12.2008C12.1898 18.9997 12.1789 18.9995 12.168 18.9991C12.0565 18.9953 11.9447 18.9953 11.8333 18.9991C11.8224 18.9995 11.8114 18.9997 11.8004 18.9997H4.38927C3.4084 18.9994 2.85301 17.8961 3.40978 17.1071C3.90652 16.4033 4.56565 15.3585 4.78869 13.8532C4.87301 13.2837 4.88543 12.4155 4.96935 11.193C5.04858 10.0391 5.19065 8.68126 5.54259 7.37761C5.89347 6.07813 6.47279 4.75703 7.47814 3.74187C8.44425 2.76663 9.74322 2.13514 11.4274 2.01922L11.7692 2.00261C11.7902 2.00206 11.8111 2.00207 11.8319 2.00263C11.9442 2.00565 12.0571 2.00564 12.1694 2.00262C12.1902 2.00206 12.2111 2.00205 12.2321 2.00261L12.5739 2.01922Z" fill="#131212"/>
</g>
<defs>
<clipPath id="clip0_28_36">
<rect width="24" height="24" fill="white"/>
</clipPath>
</defs>
</svg>
