<svg width="24" height="24" viewBox="0 0 24 24" fill="none" xmlns="http://www.w3.org/2000/svg">
<g clip-path="url(#clip0_28_37)">
<path d="M13.9998 20C14.5521 20 14.9998 20.4477 14.9998 21C14.9998 21.5523 14.5521 22 13.9998 22H9.99977C9.44771 21.9997 8.99976 21.5521 8.99976 21C8.99976 20.4479 9.44771 20.0003 9.99977 20H13.9998ZM11.9998 2C13.9015 2 15.3569 2.61615 16.4266 3.64746C17.4703 4.65397 18.0715 5.98308 18.4354 7.29492C18.8004 8.61104 18.9478 9.98749 19.0291 11.1572C19.1154 12.3977 19.1253 13.2764 19.2108 13.8535C19.3912 15.071 19.8588 15.9876 20.2899 16.6611C20.9022 17.618 20.2845 19 19.0272 19H4.97238C3.71534 18.9997 3.09763 17.6179 3.70968 16.6611C4.14078 15.9876 4.6074 15.0711 4.78781 13.8535C4.87331 13.2764 4.88415 12.3978 4.97043 11.1572C5.05179 9.98751 5.19922 8.61103 5.56419 7.29492C5.92802 5.98311 6.52934 4.65398 7.57299 3.64746C8.64258 2.61607 10.0981 2.00007 11.9998 2ZM11.9998 4C10.5688 4.00007 9.62575 4.44666 8.96168 5.08691C8.27191 5.75214 7.80304 6.70473 7.49096 7.83008C7.18009 8.95128 7.04493 10.1689 6.96654 11.2959C6.89307 12.3522 6.86603 13.4736 6.76634 14.1465C6.59437 15.3073 6.2199 16.2528 5.82493 17H18.1746C17.7797 16.2528 17.4052 15.3072 17.2332 14.1465C17.1335 13.4736 17.1065 12.3521 17.033 11.2959C16.9546 10.1689 16.8195 8.9513 16.5086 7.83008C16.1965 6.70468 15.7277 5.75212 15.0379 5.08691C14.3738 4.44674 13.4308 4 11.9998 4Z" fill="#131212"/>
</g>
<defs>
<clipPath id="clip0_28_37">
<rect width="24" height="24" fill="white"/>
</clipPath>
</defs>
</svg>
