<svg width="24" height="24" viewBox="0 0 24 24" fill="none" xmlns="http://www.w3.org/2000/svg">
<path d="M15 7C15 5.34315 13.6569 4 12 4C10.3431 4 9 5.34315 9 7C9 8.65685 10.3431 10 12 10V12C9.23858 12 7 9.76142 7 7C7 4.23858 9.23858 2 12 2C14.7614 2 17 4.23858 17 7C17 9.76142 14.7614 12 12 12V10C13.6569 10 15 8.65685 15 7Z" fill="#131212"/>
<path d="M19 21C19 20.1903 18.5178 18.6678 17.3496 17.3408C16.2171 16.0545 14.4805 15 12 15C9.51946 15 7.78289 16.0545 6.65039 17.3408C5.48223 18.6678 5 20.1903 5 21C5 21.5523 4.55228 22 4 22C3.44772 22 3 21.5523 3 21C3 19.6223 3.71775 17.6447 5.14941 16.0186C6.61692 14.3518 8.88065 13 12 13C15.1194 13 17.3831 14.3518 18.8506 16.0186C20.2823 17.6447 21 19.6223 21 21C21 21.5523 20.5523 22 20 22C19.4477 22 19 21.5523 19 21Z" fill="#131212"/>
</svg>
