<svg width="24" height="24" viewBox="0 0 24 24" fill="none" xmlns="http://www.w3.org/2000/svg">
<path d="M14.6162 14.6162C15.1044 14.1281 15.8956 14.1281 16.3838 14.6162L20.8838 19.1162C21.3719 19.6044 21.3719 20.3956 20.8838 20.8838C20.3956 21.3719 19.6044 21.3719 19.1162 20.8838L14.6162 16.3838C14.1281 15.8956 14.1281 15.1044 14.6162 14.6162Z" fill="#131212"/>
<path d="M15.5 10.5C15.5 7.73858 13.2614 5.5 10.5 5.5C7.73858 5.5 5.5 7.73858 5.5 10.5C5.5 13.2614 7.73858 15.5 10.5 15.5V18C6.35786 18 3 14.6421 3 10.5C3 6.35786 6.35786 3 10.5 3C14.6421 3 18 6.35786 18 10.5C18 14.6421 14.6421 18 10.5 18V15.5C13.2614 15.5 15.5 13.2614 15.5 10.5Z" fill="#131212"/>
</svg>
