<svg width="24" height="24" viewBox="0 0 24 24" fill="none" xmlns="http://www.w3.org/2000/svg">
<path d="M13 9C13 6.79086 11.2091 5 9 5C8.93083 5 8.86215 5.00241 8.79395 5.00586L10.1719 6.38379L10.3564 6.58691C11.2144 7.63901 11.1526 9.19097 10.1719 10.1719C9.12546 11.2183 7.4298 11.2176 6.38379 10.1719L5.00586 8.79492C5.00245 8.86281 5 8.93115 5 9C5 11.2091 6.79086 13 9 13V15C5.68629 15 3 12.3137 3 9C3 7.98899 3.25053 7.03673 3.69238 6.20117C3.9714 5.67357 4.67459 5.63565 5.09668 6.05762L7.79785 8.75781C8.06306 9.02294 8.49264 9.02299 8.75781 8.75781C9.02295 8.49263 9.02293 8.06304 8.75781 7.79785L6.05762 5.09766C5.63558 4.67562 5.67365 3.97255 6.20117 3.69336C7.03672 3.25117 7.98879 3 9 3C12.3137 3 15 5.68629 15 9C15 9.3847 14.9623 9.76059 14.8926 10.125C14.8371 10.4148 14.9466 10.7123 15.1553 10.9209L19.8389 15.6045C21.0081 16.7738 21.0081 18.6696 19.8389 19.8389C18.6696 21.0081 16.7737 21.0081 15.6045 19.8389L10.9209 15.1553C10.7123 14.9466 10.4148 14.8371 10.125 14.8926C9.76059 14.9623 9.3847 15 9 15V13C9.25562 13 9.50569 12.9753 9.74902 12.9287C10.7109 12.7445 11.6041 13.0811 12.2168 13.6289L12.335 13.7412L17.0186 18.4248C17.4067 18.813 18.0366 18.813 18.4248 18.4248C18.813 18.0366 18.813 17.4068 18.4248 17.0186L13.7412 12.335C13.1285 11.7223 12.7323 10.7748 12.9287 9.74902C12.9753 9.50569 13 9.25562 13 9Z" fill="black"/>
</svg>
