<svg width="24" height="24" viewBox="0 0 24 24" fill="none" xmlns="http://www.w3.org/2000/svg">
<path d="M9 3C12.3137 3 15 5.68629 15 9C15 9.36474 14.9666 9.72165 14.9037 10.0683C14.8432 10.4019 14.9731 10.7427 15.2129 10.9824L19.8389 15.6084C21.007 16.7766 21.007 18.6707 19.8389 19.8389C18.6707 21.007 16.7766 21.007 15.6084 19.8389L10.9824 15.2119C10.743 14.9725 10.4022 14.8431 10.069 14.9036C9.72216 14.9666 9.365 15 9 15C5.68629 15 3 12.3137 3 9C3 7.99378 3.24744 7.04527 3.68512 6.21236C3.75707 6.07543 3.95119 6.07224 4.06055 6.18164L7.59668 9.71777C8.1825 10.3032 9.13211 10.3034 9.71777 9.71777C10.3034 9.13211 10.3032 8.1825 9.71777 7.59668L6.18164 4.06055C6.07224 3.95119 6.07543 3.75707 6.21236 3.68512C7.04527 3.24744 7.99378 3 9 3Z" fill="black"/>
</svg>
