<svg width="24" height="24" viewBox="0 0 24 24" fill="none" xmlns="http://www.w3.org/2000/svg">
<path d="M17.6161 4.61612C18.1043 4.12796 18.8955 4.12796 19.3837 4.61612C19.8719 5.10427 19.8719 5.89554 19.3837 6.38369L13.7675 11.9999L19.3837 17.6161C19.8719 18.1043 19.8719 18.8955 19.3837 19.3837C18.8955 19.8719 18.1043 19.8719 17.6161 19.3837L11.9999 13.7675L6.38369 19.3837C5.89554 19.8719 5.10427 19.8719 4.61612 19.3837C4.12796 18.8955 4.12796 18.1043 4.61612 17.6161L10.2323 11.9999L4.61612 6.38369C4.12796 5.89554 4.12796 5.10427 4.61612 4.61612C5.10427 4.12796 5.89554 4.12796 6.38369 4.61612L11.9999 10.2323L17.6161 4.61612Z" fill="#131212"/>
</svg>
