<svg width="24" height="24" viewBox="0 0 24 24" fill="none" xmlns="http://www.w3.org/2000/svg">
<path d="M17.7929 4.79289C18.1834 4.40237 18.8164 4.40237 19.207 4.79289C19.5975 5.18342 19.5975 5.81643 19.207 6.20696L13.414 11.9999L19.207 17.7929C19.5975 18.1834 19.5975 18.8164 19.207 19.207C18.8164 19.5975 18.1834 19.5975 17.7929 19.207L11.9999 13.414L6.20696 19.207C5.81643 19.5975 5.18342 19.5975 4.79289 19.207C4.40237 18.8164 4.40237 18.1834 4.79289 17.7929L10.5859 11.9999L4.79289 6.20696C4.40237 5.81643 4.40237 5.18342 4.79289 4.79289C5.18342 4.40237 5.81643 4.40237 6.20696 4.79289L11.9999 10.5859L17.7929 4.79289Z" fill="#131212"/>
</svg>
