<svg width="24" height="24" viewBox="0 0 24 24" fill="none" xmlns="http://www.w3.org/2000/svg">
<path d="M20 12C20 7.58172 16.4183 4 12 4C7.58172 4 4 7.58172 4 12C4 16.4183 7.58172 20 12 20V22C6.47715 22 2 17.5228 2 12C2 6.47715 6.47715 2 12 2C17.5228 2 22 6.47715 22 12C22 17.5228 17.5228 22 12 22V20C16.4183 20 20 16.4183 20 12Z" fill="black"/>
<path d="M15.293 7.29297C15.6835 6.90244 16.3165 6.90244 16.707 7.29297C17.0976 7.68349 17.0976 8.31651 16.707 8.70703L13.4141 12L16.707 15.293C17.0976 15.6835 17.0976 16.3165 16.707 16.707C16.3165 17.0976 15.6835 17.0976 15.293 16.707L12 13.4141L8.70703 16.707C8.31651 17.0976 7.68349 17.0976 7.29297 16.707C6.90244 16.3165 6.90244 15.6835 7.29297 15.293L10.5859 12L7.29297 8.70703C6.90244 8.31651 6.90244 7.68349 7.29297 7.29297C7.68349 6.90244 8.31651 6.90244 8.70703 7.29297L12 10.5859L15.293 7.29297Z" fill="black"/>
</svg>
